<?xml version="1.0" standalone="no"?>
<!DOCTYPE svg PUBLIC "-//W3C//DTD SVG 20010904//EN"
 "http://www.w3.org/TR/2001/REC-SVG-20010904/DTD/svg10.dtd">
<svg version="1.0" xmlns="http://www.w3.org/2000/svg"
 width="720.000000pt" height="720.000000pt" viewBox="0 0 720.000000 720.000000"
 preserveAspectRatio="xMidYMid meet">
<metadata>
Created by potrace 1.14, written by Peter Selinger 2001-2017
</metadata>
<g transform="translate(0.000000,720.000000) scale(0.100000,-0.100000)"
fill="#000000" stroke="none">
<path d="M2953 6877 c-18 -6 -33 -14 -33 -18 0 -5 -6 -9 -14 -9 -8 0 -17 -7
-20 -16 -3 -8 -10 -12 -16 -9 -5 3 -10 0 -10 -7 0 -10 -22 -13 -92 -12 -92 1
-93 1 -120 -29 -25 -27 -33 -46 -29 -69 0 -5 -3 -8 -9 -8 -5 0 -7 -8 -3 -17 5
-15 3 -16 -8 -5 -7 6 -30 12 -51 12 -31 0 -40 -5 -52 -27 -8 -16 -15 -24 -16
-19 0 5 -29 -21 -64 -58 -36 -37 -68 -67 -73 -67 -16 1 -43 -10 -43 -19 0 -4
-9 -10 -21 -13 -13 -4 -18 -10 -13 -18 4 -7 3 -10 -2 -6 -5 3 -18 -1 -29 -9
-10 -8 -15 -14 -10 -14 5 0 0 -7 -11 -15 -10 -8 -15 -15 -11 -15 5 0 2 -7 -7
-15 -14 -15 -14 -32 0 -78 3 -12 3 -19 -1 -15 -9 9 -40 -30 -32 -39 3 -3 -3
-14 -13 -26 -11 -11 -17 -24 -14 -29 3 -4 1 -8 -5 -8 -5 0 -8 -9 -6 -19 2 -11
-9 -33 -25 -52 -16 -17 -27 -36 -24 -40 3 -5 -5 -30 -17 -56 -13 -26 -23 -57
-24 -69 -2 -30 13 -66 25 -59 5 3 10 1 10 -4 0 -10 -7 -12 -27 -10 -9 1 -27
-42 -24 -58 1 -7 -4 -13 -11 -13 -9 0 -9 -3 2 -10 10 -7 11 -13 5 -17 -6 -5
-11 -15 -10 -23 0 -21 24 -60 36 -60 15 0 39 -26 32 -34 -4 -3 -1 -6 7 -6 8 0
9 -4 3 -12 -6 -7 -9 -23 -8 -35 1 -12 -5 -25 -13 -28 -12 -4 -13 -8 -4 -17 7
-7 12 -20 12 -30 0 -10 5 -18 12 -18 6 0 8 -3 5 -7 -4 -3 1 -15 10 -26 10 -10
17 -21 16 -23 -2 -2 -1 -4 2 -4 3 1 12 -6 20 -14 9 -8 24 -13 35 -11 13 2 20
-2 20 -11 0 -8 5 -14 11 -14 6 0 9 -6 6 -12 -5 -14 19 -62 46 -92 9 -11 17
-26 17 -33 0 -7 7 -13 16 -13 8 0 13 -3 10 -8 -2 -4 13 -16 35 -26 21 -11 39
-23 39 -28 0 -5 4 -7 8 -4 5 3 15 -4 23 -16 8 -11 19 -26 24 -32 6 -6 10 -20
10 -31 -1 -11 4 -23 10 -27 6 -5 5 -8 -3 -8 -8 0 -11 -11 -10 -30 1 -16 6 -30
10 -30 4 0 8 -9 8 -19 0 -11 5 -21 10 -23 17 -5 20 -48 4 -55 -8 -3 -13 -12
-10 -19 3 -8 0 -14 -6 -14 -6 0 -8 -3 -5 -7 4 -3 2 -12 -3 -18 -12 -14 -3 -45
12 -45 6 0 8 -7 4 -15 -3 -9 2 -24 12 -34 9 -10 18 -24 20 -32 2 -7 9 -17 15
-21 8 -5 7 -8 -3 -8 -9 0 -11 -3 -5 -8 6 -4 12 -16 13 -27 2 -11 5 -24 5 -29
1 -5 15 -21 30 -36 15 -16 27 -32 26 -36 -9 -51 14 -113 43 -118 24 -3 38 -17
38 -37 0 -10 5 -19 11 -19 5 0 7 -4 4 -10 -3 -5 -1 -10 5 -10 6 0 8 -4 5 -10
-3 -5 0 -10 8 -10 8 0 21 -18 30 -40 14 -36 14 -42 0 -55 -8 -8 -18 -13 -23
-10 -5 3 -25 -4 -44 -15 -20 -11 -36 -17 -36 -14 0 4 -7 1 -15 -6 -8 -7 -15
-10 -15 -6 0 3 -16 -3 -36 -14 -19 -11 -39 -18 -44 -15 -4 3 -11 -2 -14 -10
-3 -8 -9 -14 -13 -13 -22 7 -157 -114 -196 -174 -10 -16 -24 -28 -32 -28 -8 0
-19 -8 -24 -17 -6 -10 -11 -14 -11 -10 0 13 -23 -13 -49 -55 -12 -21 -25 -37
-29 -35 -14 4 -122 -26 -122 -35 0 -4 -5 -8 -11 -8 -7 0 -20 -10 -30 -22 -11
-11 -19 -18 -19 -15 0 13 -46 -42 -64 -77 -25 -47 -77 -79 -92 -55 -3 5 -10 7
-15 3 -5 -3 -22 -8 -36 -10 -15 -3 -30 -8 -33 -12 -3 -4 -12 -8 -20 -10 -18
-4 -66 -53 -63 -64 2 -5 -3 -8 -10 -8 -7 0 -19 -9 -27 -20 -18 -25 -67 -59
-55 -39 5 8 -1 6 -12 -3 -11 -10 -25 -18 -32 -18 -7 0 -10 -4 -6 -9 3 -6 -4
-15 -16 -21 -11 -7 -18 -14 -15 -17 3 -4 -3 -13 -14 -20 -11 -8 -18 -19 -15
-24 4 -5 1 -9 -4 -9 -6 0 -11 -6 -11 -14 0 -8 -5 -16 -12 -18 -12 -4 -15 -16
-25 -83 -3 -22 -9 -48 -15 -58 -5 -9 -6 -21 -4 -26 3 -5 -1 -12 -10 -15 -9 -4
-14 -9 -11 -13 4 -3 2 -12 -4 -20 -6 -7 -8 -13 -4 -13 4 0 2 -6 -4 -14 -6 -7
-13 -33 -16 -57 -2 -24 -9 -45 -14 -47 -5 -2 -8 -9 -5 -15 2 -7 -11 -29 -31
-50 -35 -37 -53 -48 -39 -24 4 6 -5 1 -19 -12 -15 -13 -24 -28 -21 -32 3 -5 0
-9 -6 -9 -6 0 -9 -4 -6 -9 3 -5 -1 -25 -9 -46 -22 -52 -27 -121 -12 -153 8
-15 12 -40 10 -57 -2 -16 -4 -36 -5 -42 -1 -7 -5 -13 -10 -13 -4 0 -7 -3 -6
-7 1 -5 -3 -18 -10 -30 -10 -19 -10 -23 0 -23 8 0 9 -3 3 -8 -5 -4 -11 -16
-13 -27 -4 -28 -7 -39 -14 -51 -11 -17 0 -58 19 -72 10 -7 17 -18 16 -23 -2
-5 5 -9 14 -9 9 0 13 -3 10 -7 -4 -3 -1 -13 6 -21 8 -11 8 -14 0 -9 -16 10
-28 -50 -14 -67 9 -10 8 -17 -2 -27 -10 -11 -13 -52 -13 -161 0 -82 3 -148 8
-148 5 0 6 -4 3 -10 -3 -5 -1 -10 4 -10 6 0 10 -3 8 -7 -1 -5 1 -8 5 -8 4 0
15 -10 23 -22 9 -13 21 -23 26 -23 16 0 34 -22 47 -58 11 -33 74 -102 92 -102
6 0 10 -5 10 -11 0 -5 5 -7 10 -4 6 3 13 -1 16 -9 3 -9 13 -16 21 -16 8 0 12
-4 9 -8 -3 -4 15 -19 40 -32 24 -14 44 -28 44 -32 0 -5 3 -7 8 -6 4 1 23 -4
42 -11 19 -8 37 -15 40 -15 3 -1 25 -12 49 -24 25 -12 46 -20 49 -18 2 3 13
-4 25 -14 11 -11 24 -17 29 -14 4 3 8 1 8 -5 0 -6 7 -8 15 -5 8 4 15 2 15 -3
0 -5 14 -10 31 -11 46 -4 53 -6 65 -21 10 -12 4 -60 -14 -111 -9 -25 -8 -105
1 -111 14 -10 14 -68 0 -73 -7 -3 -10 -12 -7 -21 3 -8 2 -15 -3 -15 -5 0 -9
-10 -7 -22 1 -13 3 -23 4 -23 2 0 10 -32 17 -68 3 -15 9 -27 14 -27 5 0 9 -7
9 -15 0 -8 5 -15 12 -15 6 0 9 -3 6 -6 -3 -3 12 -24 33 -47 l40 -41 109 -1
c69 0 110 3 110 10 0 7 3 7 8 0 10 -14 472 -14 472 0 0 7 3 6 8 0 10 -14 464
-14 474 0 5 6 8 6 8 -1 0 -15 49 -11 86 8 21 10 35 12 46 4 12 -7 20 -5 33 7
9 10 20 15 25 12 5 -3 11 -1 15 5 4 6 12 5 21 -5 9 -8 20 -13 25 -10 5 4 9 2
9 -3 0 -5 7 -9 15 -9 8 0 15 4 15 8 0 9 20 6 38 -4 6 -5 12 -4 12 0 0 5 9 9
20 9 11 0 20 -4 20 -8 0 -4 5 -8 11 -8 5 0 8 3 5 8 -4 6 63 8 72 2 3 -3 50 -3
60 0 24 7 49 3 65 -10 19 -16 134 -23 143 -8 3 5 11 5 17 1 17 -10 137 -12
143 -1 3 4 11 5 17 1 17 -10 137 -12 143 -1 3 4 11 5 17 1 17 -10 137 -12 143
-1 3 4 11 5 17 1 16 -10 97 -10 103 -1 3 5 11 5 17 1 14 -9 217 -11 211 -2 -2
3 8 12 21 19 14 7 25 17 25 22 0 5 5 6 10 3 6 -3 13 0 16 8 3 8 15 17 26 20
11 3 17 10 14 16 -4 5 3 12 14 16 11 3 20 13 20 21 0 8 4 13 9 10 12 -8 23 22
14 37 -3 7 -3 9 1 5 5 -4 20 4 34 18 15 13 30 25 34 25 5 1 13 3 18 4 6 1 21
3 34 4 14 0 31 8 39 16 8 8 17 11 21 8 3 -4 6 -2 6 4 0 10 46 28 63 25 4 -1 7
3 7 8 0 6 11 15 25 20 14 5 28 17 31 25 4 8 12 15 20 15 8 0 14 5 14 10 0 6 7
10 16 10 22 0 154 70 154 82 0 5 4 7 8 4 5 -3 18 4 30 14 12 11 26 20 32 20 5
0 10 7 10 16 0 8 4 13 9 10 5 -3 11 4 14 15 3 11 15 23 26 26 12 3 21 10 21
15 0 5 30 39 68 75 37 35 66 69 64 75 -1 5 1 8 5 5 5 -2 25 15 47 37 21 23 38
41 37 41 -1 0 1 8 4 17 4 10 11 15 16 12 5 -3 9 -1 9 5 0 5 9 13 20 16 11 4
18 10 15 15 -3 4 13 28 35 51 22 24 38 49 36 56 -3 6 4 15 14 18 11 3 19 9 18
13 -1 4 6 25 16 47 16 36 24 65 28 103 1 6 5 12 10 12 4 0 7 3 7 8 -3 19 2 33
10 28 5 -4 7 3 4 14 -3 11 0 26 6 33 6 8 8 17 4 20 -3 4 -1 7 5 7 6 0 11 8 11
18 2 45 6 62 14 62 4 0 5 5 2 10 -4 6 -2 16 3 23 5 7 10 28 11 47 2 19 3 49 4
65 1 17 8 34 15 38 10 7 11 12 1 24 -8 8 -9 17 -3 21 14 11 11 45 -6 60 -8 8
-9 11 -2 7 14 -7 15 5 2 39 -6 16 -6 27 0 31 7 4 7 13 0 24 -5 10 -7 20 -5 23
7 7 7 60 0 108 -4 25 -8 54 -10 65 -1 11 -4 20 -5 20 -3 0 -7 23 -12 63 -1 12
-6 22 -10 22 -4 0 -5 9 -3 20 2 11 -1 22 -6 25 -5 4 -7 11 -4 16 4 5 2 9 -2 9
-8 0 -12 15 -15 58 -1 6 -4 12 -8 12 -3 0 -6 9 -7 20 -1 11 -9 28 -18 37 -17
17 -39 63 -37 76 1 4 -3 7 -9 7 -5 0 -7 5 -4 10 4 6 2 16 -3 23 -18 21 -72
131 -72 145 0 7 -4 10 -10 7 -6 -3 -10 0 -10 8 0 7 -9 23 -20 35 -12 12 -16
22 -11 22 6 0 -11 22 -37 48 -26 27 -48 55 -50 63 -2 8 -12 20 -22 28 -11 7
-20 20 -20 28 0 8 -4 11 -10 8 -5 -3 -10 -2 -10 3 0 14 -47 62 -54 55 -3 -4
-6 -1 -6 6 0 6 -9 22 -20 34 -28 30 -51 77 -38 77 7 0 7 5 1 13 -5 6 -9 19 -8
27 0 8 -5 21 -12 28 -7 7 -15 28 -19 47 -3 19 -10 32 -15 29 -5 -3 -9 4 -9 15
0 12 -5 21 -11 21 -5 0 -7 5 -4 10 3 5 -1 10 -9 10 -9 0 -15 4 -13 8 3 11
-158 172 -172 172 -6 0 -11 4 -11 9 0 5 -8 12 -19 16 -10 3 -31 16 -46 29 -26
22 -98 49 -131 49 -8 0 -14 4 -14 8 0 8 -26 6 -36 -4 -4 -3 -18 3 -32 13 -13
11 -31 20 -39 20 -8 0 -21 7 -30 15 -8 8 -19 13 -24 10 -5 -4 -9 -2 -9 3 0 5
-13 12 -30 14 -16 3 -30 2 -30 -2 0 -7 -72 -40 -88 -40 -5 0 -12 -5 -14 -10
-2 -6 -13 -12 -26 -13 -12 0 -22 -6 -22 -11 0 -6 -5 -5 -11 1 -13 13 -39 -6
-39 -26 0 -6 -5 -11 -11 -11 -6 0 -8 -7 -5 -16 4 -11 1 -14 -12 -12 -9 2 -16
10 -14 16 1 7 -2 12 -7 12 -4 0 -6 11 -3 25 3 16 0 25 -9 25 -7 0 -9 3 -6 7 8
7 -38 33 -58 33 -8 0 -21 7 -29 16 -9 8 -16 13 -16 9 0 -3 -26 21 -59 55 -36
37 -67 60 -80 60 -12 0 -20 4 -17 8 2 4 -5 9 -16 9 -12 1 -24 6 -27 11 -3 5
-14 8 -23 6 -10 -1 -22 5 -28 14 -6 11 -10 12 -10 4 0 -9 -7 -8 -25 4 -18 12
-25 13 -25 4 0 -8 -4 -9 -12 -3 -7 5 -48 9 -90 8 -72 -1 -78 0 -80 19 -3 41
-3 45 -10 52 -4 3 -3 15 2 25 7 12 7 20 0 24 -6 4 -7 11 -4 17 6 10 9 27 13
76 1 7 5 11 9 8 10 -6 58 45 54 57 -1 4 2 7 7 7 8 0 17 20 26 58 2 6 -1 12 -6
12 -6 0 -7 5 -4 10 3 6 1 10 -5 10 -6 0 -8 5 -5 10 3 6 1 10 -4 10 -6 0 -11 5
-11 11 0 12 30 44 30 32 0 -4 6 1 12 12 15 24 18 65 6 65 -5 0 -6 4 -3 10 3 5
-5 19 -19 31 -28 24 -26 39 5 39 10 0 19 5 19 10 0 6 3 9 8 8 15 -5 57 48 54
70 -2 12 2 22 8 22 6 0 9 4 6 9 -6 10 16 61 27 61 4 0 7 7 7 15 0 8 5 15 10
15 6 0 10 6 10 14 0 12 22 28 42 30 12 2 38 43 31 50 -3 3 -1 6 6 6 9 0 12 9
9 25 -3 14 -1 28 4 31 6 4 5 10 -3 14 -10 7 -10 11 0 24 8 9 11 16 8 16 -3 0
10 16 29 35 19 20 34 40 34 46 0 5 4 8 8 5 12 -7 29 26 28 56 -1 14 1 25 5 22
4 -2 5 13 4 34 -1 20 -3 45 -4 55 0 10 -5 15 -11 12 -6 -3 -7 1 -4 9 3 9 9 15
12 14 20 -2 32 3 27 12 -3 6 0 10 8 10 8 0 13 9 12 23 -1 12 0 26 3 31 9 17
10 96 1 90 -5 -3 -9 2 -9 10 0 9 -6 16 -14 16 -20 0 -23 16 -19 81 4 45 1 60
-14 74 -10 10 -18 23 -19 29 -1 28 -17 56 -34 61 -29 9 -31 33 -5 61 27 29 26
28 30 64 3 26 -30 64 -46 54 -8 -5 -13 10 -10 29 0 4 -7 7 -16 7 -9 0 -14 3
-10 6 8 8 -25 44 -35 38 -4 -3 -8 0 -8 5 0 6 -7 11 -16 11 -28 0 -45 27 -41
65 4 31 -1 42 -31 71 -19 19 -31 34 -26 34 21 0 -44 26 -70 28 -17 1 -32 6
-35 11 -10 15 -49 31 -75 31 -25 0 -68 35 -74 60 -4 18 -24 35 -47 38 -40 5
-47 9 -57 25 -7 14 -25 17 -93 17 -80 0 -135 13 -135 32 0 4 -9 8 -19 8 -11 0
-22 4 -26 10 -3 5 -12 7 -19 4 -8 -3 -17 0 -21 5 -3 6 -10 9 -15 6 -5 -3 -18
-1 -28 4 -11 6 -22 7 -26 4 -11 -11 -46 -10 -46 1 0 8 -3 7 -8 0 -13 -20 -137
-20 -169 -1 -6 4 -14 3 -17 -2 -4 -5 -17 -8 -31 -7 -13 2 -22 -1 -19 -5 3 -5
1 -9 -5 -9 -5 0 -13 5 -16 10 -4 6 -11 8 -16 5 -5 -4 -9 -1 -9 6 0 8 -5 7 -17
-2 -10 -8 -14 -9 -10 -2 9 14 -32 14 -80 0z"/>
</g>
</svg>
